<svg version="1.1" id="Layer_1" xmlns="http://www.w3.org/2000/svg" xmlns:xlink="http://www.w3.org/1999/xlink" x="0px" y="0px"
	 width="100%" viewBox="0 0 2363 2363" enable-background="new 0 0 2363 2363" xml:space="preserve">
<path fill="#FFFFFF" opacity="1.000000" stroke="none" 
	d="
M1614.000000,2366.000000 
	C1076.000000,2366.000000 539.000000,2366.000000 2.000000,2366.000000 
	C2.000000,1578.000000 2.000000,790.000000 2.000000,2.000000 
	C790.000000,2.000000 1578.000000,2.000000 2366.000000,2.000000 
	C2366.000000,790.000000 2366.000000,1578.000000 2366.000000,2366.000000 
	C2115.666748,2366.000000 1865.333374,2366.000000 1614.000000,2366.000000 
M1125.130737,1694.468506 
	C1124.133301,1683.921997 1123.184082,1673.370850 1122.130005,1662.829956 
	C1117.975708,1621.285522 1113.818604,1579.741211 1109.586792,1538.204590 
	C1108.790771,1530.390381 1107.647095,1522.611572 1106.637817,1514.609985 
	C1053.532471,1514.609985 1001.349854,1514.609985 948.494080,1514.609985 
	C972.982178,1659.286621 997.377747,1803.415894 1021.823608,1947.842651 
	C1030.840820,1947.842651 1039.115723,1947.842651 1049.315308,1948.189331 
	C1087.293457,1948.189331 1125.271484,1948.189331 1164.135620,1948.189331 
	C1183.808228,1912.163208 1203.568359,1876.011108 1223.295166,1839.840820 
	C1242.882568,1803.926392 1262.437622,1767.994385 1282.004639,1732.068848 
	C1301.731079,1695.850220 1321.477417,1659.642456 1341.173462,1623.407227 
	C1360.756714,1587.379272 1380.823486,1551.605713 1400.141479,1514.752197 
	C1341.365845,1514.752197 1284.132935,1514.752197 1227.172852,1514.752197 
	C1226.575928,1515.828613 1226.194946,1516.383545 1225.941040,1516.991455 
	C1198.535278,1582.644775 1171.175537,1648.317261 1143.704590,1713.943359 
	C1139.368774,1724.301270 1134.533447,1734.450073 1129.633179,1742.952026 
	C1129.201538,1741.049194 1128.532593,1739.165649 1128.376099,1737.240479 
	C1127.262085,1723.528931 1126.252686,1709.809082 1125.130737,1694.468506 
M1272.161255,1073.127686 
	C1266.776855,1064.777588 1261.061279,1056.620605 1256.062134,1048.045898 
	C1224.036133,993.112854 1195.867554,936.169983 1168.423950,878.860352 
	C1163.393921,868.356262 1156.468994,859.661438 1146.304565,853.915588 
	C1123.349121,840.939514 1087.096802,845.897827 1072.553345,877.154297 
	C1057.826416,908.805237 1042.779785,940.309265 1028.262207,972.055603 
	C1014.432190,1002.298401 1008.808411,1033.852051 1013.532227,1067.150635 
	C1020.586914,1116.880127 1044.679199,1155.596680 1087.058716,1182.618042 
	C1104.472900,1193.721436 1123.403442,1200.059448 1144.473877,1199.710205 
	C1188.396484,1198.982056 1232.326172,1198.608032 1276.254272,1198.303833 
	C1306.236938,1198.096313 1336.222168,1198.299927 1366.206055,1198.226807 
	C1380.855225,1198.191040 1395.503784,1197.943237 1411.871460,1198.100342 
	C1420.084473,1196.973633 1428.396851,1196.324341 1436.493164,1194.637817 
	C1471.890625,1187.264160 1499.499512,1167.429932 1522.526978,1140.316650 
	C1544.879883,1113.997681 1562.426147,1084.517578 1577.579712,1053.763916 
	C1598.455322,1011.397766 1618.179321,968.456543 1637.951904,925.556702 
	C1660.362549,876.933167 1682.042603,827.972778 1704.481934,779.362671 
	C1726.787109,731.043457 1749.463013,682.892944 1772.300293,634.822449 
	C1799.142456,578.321716 1826.299316,521.970276 1853.399902,465.592743 
	C1859.312744,453.292114 1865.839600,441.281982 1871.579468,428.904236 
	C1876.802856,417.640289 1871.244019,408.903839 1858.923950,408.190613 
	C1856.598511,408.055939 1854.258667,408.163696 1851.925537,408.163635 
	C1827.260376,408.162720 1802.591675,407.904724 1777.931519,408.254791 
	C1762.020508,408.480652 1745.827026,407.899628 1730.267700,410.602325 
	C1651.344604,424.311646 1592.742920,466.578369 1556.108032,538.184082 
	C1536.100098,577.291504 1517.030151,616.878540 1497.058838,656.005188 
	C1461.502197,725.666077 1425.856323,795.284424 1389.705444,864.637878 
	C1369.869873,902.691162 1349.256714,940.350769 1328.381958,977.847046 
	C1310.420532,1010.110168 1291.590454,1041.889893 1272.161255,1073.127686 
M1125.510376,635.229797 
	C1128.192993,638.962463 1131.295410,642.464355 1133.493042,646.463501 
	C1155.111572,685.802612 1177.082275,724.960999 1197.915894,764.714233 
	C1212.111694,791.801514 1224.646606,819.758728 1237.946533,847.316223 
	C1243.007324,857.801941 1247.910400,868.372253 1253.287109,878.694763 
	C1258.758057,889.198547 1268.142334,893.684692 1279.607422,893.543823 
	C1290.700317,893.407532 1299.507080,888.715027 1304.828735,878.589478 
	C1306.837769,874.766663 1308.626953,870.825562 1310.441406,866.903748 
	C1329.567383,825.565979 1348.196655,783.989380 1367.953979,742.955933 
	C1382.334839,713.088684 1389.234497,681.960632 1385.955200,649.147827 
	C1380.260376,592.169434 1352.300903,549.091064 1301.963379,521.377991 
	C1288.220581,513.811951 1273.096924,509.972076 1256.991089,510.162994 
	C1199.402954,510.845581 1141.810669,511.195984 1084.219360,511.597626 
	C1054.242554,511.806671 1024.264526,511.859863 992.440979,511.617188 
	C953.605225,511.506714 920.465088,525.556335 892.364319,552.002197 
	C865.069763,577.689392 845.302795,608.950989 828.423950,641.879333 
	C808.553650,680.643555 789.880310,720.043213 771.508362,759.548950 
	C734.633545,838.842102 698.575989,918.515320 661.679199,997.798157 
	C635.996460,1052.984619 609.709839,1107.894165 583.267639,1162.722290 
	C555.803650,1219.668823 527.827148,1276.368530 500.077942,1333.177734 
	C499.055084,1335.271729 497.885803,1337.316040 497.087860,1339.494629 
	C491.189697,1355.597778 503.572754,1370.613037 520.447388,1367.799805 
	C523.388916,1367.309326 526.259949,1366.385254 529.155029,1365.628906 
	C572.237122,1354.373413 615.301025,1343.048218 658.402405,1331.867310 
	C728.219849,1313.755981 780.844238,1273.462158 814.218628,1209.389526 
	C846.195251,1148.000366 877.042786,1086.023682 908.515808,1024.371216 
	C919.557983,1002.740784 930.792175,981.203369 942.273804,959.803345 
	C966.960815,913.790100 991.523743,867.704834 1016.780029,822.004150 
	C1040.590332,778.920166 1065.111572,736.226990 1089.546753,693.491516 
	C1100.759644,673.880981 1112.515381,654.580811 1125.510376,635.229797 
M2029.832764,1622.956543 
	C2023.099121,1659.454590 2016.365601,1695.952637 2009.632080,1732.450684 
	C1988.095215,1658.213135 1957.767822,1587.335693 1933.422485,1514.885864 
	C1879.118652,1514.885864 1825.958252,1514.885864 1772.723389,1514.885864 
	C1746.034546,1659.475952 1719.472168,1803.380737 1692.901367,1947.331421 
	C1709.481812,1949.283936 1846.086060,1948.548218 1853.452759,1946.423462 
	C1865.083252,1875.058472 1882.297607,1804.416504 1889.734619,1731.747925 
	C1916.607422,1803.385132 1941.787476,1875.673096 1968.017334,1947.795898 
	C2021.346069,1947.795898 2074.258789,1947.795898 2128.361328,1947.795898 
	C2154.977051,1803.585449 2181.588135,1659.401489 2208.309082,1514.621948 
	C2155.233643,1514.621948 2102.997559,1514.621948 2050.079590,1514.621948 
	C2043.440430,1550.228760 2036.816772,1585.751099 2029.832764,1622.956543 
M245.904099,1773.150024 
	C243.685364,1770.769287 241.466629,1768.388550 238.778152,1765.503784 
	C212.555206,1803.819214 186.701065,1841.595703 160.666199,1879.636353 
	C174.347168,1892.393066 188.537170,1902.746704 203.374008,1912.191650 
	C254.598190,1944.800781 309.807678,1962.482910 371.326874,1958.364624 
	C402.740143,1956.261475 432.292145,1948.641357 459.821198,1933.612671 
	C485.088684,1919.818481 505.847168,1901.018555 520.699890,1876.061523 
	C539.875793,1843.840210 545.556824,1809.076050 539.547058,1772.404175 
	C536.607971,1754.470093 529.641418,1738.107910 517.782043,1723.850586 
	C507.608307,1711.619751 495.302246,1702.232178 482.002716,1693.884644 
	C463.889221,1682.515259 444.081329,1674.659302 424.656067,1665.975098 
	C416.806122,1662.465698 409.182281,1658.284180 401.920471,1653.675781 
	C395.551208,1649.634155 392.462219,1643.311523 394.207733,1635.604004 
	C395.925293,1628.019775 401.496704,1624.188599 408.553192,1621.828491 
	C417.251007,1618.919312 425.699188,1620.829468 434.019836,1622.984497 
	C454.425171,1628.269653 471.528656,1639.793701 487.940948,1652.462646 
	C493.618408,1656.845093 499.115601,1661.461182 505.179871,1666.362305 
	C525.744629,1630.351440 545.831238,1595.177734 565.776550,1560.251587 
	C564.833862,1558.743652 564.417786,1557.819946 563.770813,1557.105469 
	C562.882263,1556.124390 561.862244,1555.247192 560.823975,1554.419067 
	C519.802795,1521.703369 472.478058,1506.494019 420.590057,1504.206055 
	C401.945374,1503.383911 383.364166,1504.662231 365.000519,1508.001343 
	C324.185059,1515.423340 288.117981,1532.020020 261.610992,1565.015869 
	C231.771378,1602.160034 223.242310,1644.682007 233.626465,1690.811646 
	C240.022446,1719.224365 258.557953,1739.489990 281.380341,1756.184814 
	C302.227264,1771.434692 325.728943,1781.614990 349.486450,1791.306885 
	C357.459656,1794.559448 365.203888,1798.417236 372.883453,1802.330688 
	C378.361816,1805.122437 381.598633,1810.231934 381.113159,1816.127930 
	C380.584045,1822.553955 375.895508,1826.819580 369.820526,1828.878418 
	C366.081146,1830.145386 362.042328,1831.548096 358.218231,1831.348877 
	C348.009216,1830.817261 337.516205,1830.719971 327.720306,1828.188721 
	C294.639587,1819.640991 268.850952,1799.638672 245.904099,1773.150024 
M874.223389,1830.162842 
	C825.734558,1830.162842 777.245789,1830.162842 728.082642,1830.162842 
	C731.054993,1814.056274 733.745178,1799.478882 736.585510,1784.087646 
	C781.100830,1784.087646 824.956177,1784.087646 869.240723,1784.087646 
	C876.033630,1746.923462 882.668518,1710.623657 889.489441,1673.306152 
	C844.770813,1673.306152 801.531372,1673.306152 756.786926,1673.306152 
	C759.441772,1659.104736 761.904358,1645.931763 764.496277,1632.066772 
	C811.961426,1632.066772 858.512146,1632.066772 905.763000,1632.066772 
	C912.850830,1592.664062 919.806641,1553.995483 926.861633,1514.775146 
	C826.479065,1514.775146 727.654724,1514.775146 628.460815,1514.775146 
	C601.798401,1659.259644 575.233032,1803.217896 548.568970,1947.711426 
	C652.604370,1947.711426 756.132446,1947.711426 860.333984,1947.711426 
	C867.563049,1908.696777 874.732300,1870.005127 881.985352,1830.861084 
	C879.257812,1830.543091 877.642883,1830.354736 874.223389,1830.162842 
M1710.215698,1569.143677 
	C1713.407349,1551.233154 1716.598999,1533.322510 1719.912842,1514.726318 
	C1620.210327,1514.726318 1521.346924,1514.726318 1421.546509,1514.726318 
	C1394.943359,1658.843872 1368.334473,1802.991699 1341.646606,1947.567993 
	C1446.068848,1947.567993 1549.560181,1947.567993 1653.423096,1947.567993 
	C1660.394775,1908.376099 1668.448486,1869.910889 1674.761108,1830.162476 
	C1663.317383,1830.162476 1653.360352,1830.162598 1643.403442,1830.162598 
	C1633.071411,1830.162598 1622.739502,1830.162598 1612.407471,1830.162598 
	C1602.408813,1830.162598 1592.410156,1830.162598 1582.411499,1830.162598 
	C1572.079468,1830.162598 1561.746460,1830.253906 1551.415771,1830.136108 
	C1541.622192,1830.024536 1531.777100,1830.666992 1521.247314,1829.640503 
	C1524.188843,1813.821411 1526.902588,1799.226807 1529.707275,1784.143433 
	C1574.173950,1784.143433 1617.771973,1784.143433 1662.300049,1784.143433 
	C1669.003418,1747.293335 1675.618042,1710.930908 1682.457031,1673.335205 
	C1637.657837,1673.335205 1594.179810,1673.335205 1549.720947,1673.335205 
	C1552.474487,1658.953247 1555.001099,1645.756714 1557.602173,1632.171265 
	C1574.189575,1632.171265 1589.831543,1632.171265 1605.473511,1632.171265 
	C1621.138062,1632.171265 1636.802856,1632.202759 1652.467285,1632.162231 
	C1667.983643,1632.122192 1683.511475,1632.347778 1698.839966,1632.006470 
	C1702.685791,1610.672729 1706.276489,1590.753662 1710.215698,1569.143677 
z"/>
<path fill="#3354FF" opacity="1.000000" stroke="none" 
	d="
M1124.025024,635.139954 
	C1112.515381,654.580811 1100.759644,673.880981 1089.546753,693.491516 
	C1065.111572,736.226990 1040.590332,778.920166 1016.780029,822.004150 
	C991.523743,867.704834 966.960815,913.790100 942.273804,959.803345 
	C930.792175,981.203369 919.557983,1002.740784 908.515808,1024.371216 
	C877.042786,1086.023682 846.195251,1148.000366 814.218628,1209.389526 
	C780.844238,1273.462158 728.219849,1313.755981 658.402405,1331.867310 
	C615.301025,1343.048218 572.237122,1354.373413 529.155029,1365.628906 
	C526.259949,1366.385254 523.388916,1367.309326 520.447388,1367.799805 
	C503.572754,1370.613037 491.189697,1355.597778 497.087860,1339.494629 
	C497.885803,1337.316040 499.055084,1335.271729 500.077942,1333.177734 
	C527.827148,1276.368530 555.803650,1219.668823 583.267639,1162.722290 
	C609.709839,1107.894165 635.996460,1052.984619 661.679199,997.798157 
	C698.575989,918.515320 734.633545,838.842102 771.508362,759.548950 
	C789.880310,720.043213 808.553650,680.643555 828.423950,641.879333 
	C845.302795,608.950989 865.069763,577.689392 892.364319,552.002197 
	C920.465088,525.556335 953.605225,511.506714 993.783325,512.380676 
	C1020.921204,518.477539 1042.085938,532.058472 1060.925781,549.889587 
	C1084.681274,572.373108 1103.793701,598.524353 1121.172607,626.027649 
	C1122.815552,628.627808 1123.106445,632.082153 1124.025024,635.139954 
z"/>
<path fill="#3354FF" opacity="1.000000" stroke="none" 
	d="
M1273.144531,1073.883301 
	C1291.590454,1041.889893 1310.420532,1010.110168 1328.381958,977.847046 
	C1349.256714,940.350769 1369.869873,902.691162 1389.705444,864.637878 
	C1425.856323,795.284424 1461.502197,725.666077 1497.058838,656.005188 
	C1517.030151,616.878540 1536.100098,577.291504 1556.108032,538.184082 
	C1592.742920,466.578369 1651.344604,424.311646 1730.267700,410.602325 
	C1745.827026,407.899628 1762.020508,408.480652 1777.931519,408.254791 
	C1802.591675,407.904724 1827.260376,408.162720 1851.925537,408.163635 
	C1854.258667,408.163696 1856.598511,408.055939 1858.923950,408.190613 
	C1871.244019,408.903839 1876.802856,417.640289 1871.579468,428.904236 
	C1865.839600,441.281982 1859.312744,453.292114 1853.399902,465.592743 
	C1826.299316,521.970276 1799.142456,578.321716 1772.300293,634.822449 
	C1749.463013,682.892944 1726.787109,731.043457 1704.481934,779.362671 
	C1682.042603,827.972778 1660.362549,876.933167 1637.951904,925.556702 
	C1618.179321,968.456543 1598.455322,1011.397766 1577.579712,1053.763916 
	C1562.426147,1084.517578 1544.879883,1113.997681 1522.526978,1140.316650 
	C1499.499512,1167.429932 1471.890625,1187.264160 1436.493164,1194.637817 
	C1428.396851,1196.324341 1420.084473,1196.973633 1410.412598,1197.466919 
	C1382.547485,1192.748901 1360.551880,1180.141235 1341.118774,1162.254028 
	C1318.298096,1141.248901 1299.594360,1116.877930 1282.410156,1091.263672 
	C1278.771118,1085.839478 1276.204956,1079.695557 1273.144531,1073.883301 
z"/>
<path fill="#3355FF" opacity="1.000000" stroke="none" 
	d="
M2030.012939,1622.114990 
	C2036.816772,1585.751099 2043.440430,1550.228760 2050.079590,1514.621948 
	C2102.997559,1514.621948 2155.233643,1514.621948 2208.309082,1514.621948 
	C2181.588135,1659.401489 2154.977051,1803.585449 2128.361328,1947.795898 
	C2074.258789,1947.795898 2021.346069,1947.795898 1968.017334,1947.795898 
	C1941.787476,1875.673096 1916.607422,1803.385132 1889.734619,1731.747925 
	C1882.297607,1804.416504 1865.083252,1875.058472 1853.452759,1946.423462 
	C1846.086060,1948.548218 1709.481812,1949.283936 1692.901367,1947.331421 
	C1719.472168,1803.380737 1746.034546,1659.475952 1772.723389,1514.885864 
	C1825.958252,1514.885864 1879.118652,1514.885864 1933.422485,1514.885864 
	C1957.767822,1587.335693 1988.095215,1658.213135 2009.632080,1732.450684 
	C2016.365601,1695.952637 2023.099121,1659.454590 2030.012939,1622.114990 
z"/>
<path fill="#3355FF" opacity="1.000000" stroke="none" 
	d="
M246.404800,1773.649292 
	C268.850952,1799.638672 294.639587,1819.640991 327.720306,1828.188721 
	C337.516205,1830.719971 348.009216,1830.817261 358.218231,1831.348877 
	C362.042328,1831.548096 366.081146,1830.145386 369.820526,1828.878418 
	C375.895508,1826.819580 380.584045,1822.553955 381.113159,1816.127930 
	C381.598633,1810.231934 378.361816,1805.122437 372.883453,1802.330688 
	C365.203888,1798.417236 357.459656,1794.559448 349.486450,1791.306885 
	C325.728943,1781.614990 302.227264,1771.434692 281.380341,1756.184814 
	C258.557953,1739.489990 240.022446,1719.224365 233.626465,1690.811646 
	C223.242310,1644.682007 231.771378,1602.160034 261.610992,1565.015869 
	C288.117981,1532.020020 324.185059,1515.423340 365.000519,1508.001343 
	C383.364166,1504.662231 401.945374,1503.383911 420.590057,1504.206055 
	C472.478058,1506.494019 519.802795,1521.703369 560.823975,1554.419067 
	C561.862244,1555.247192 562.882263,1556.124390 563.770813,1557.105469 
	C564.417786,1557.819946 564.833862,1558.743652 565.776550,1560.251587 
	C545.831238,1595.177734 525.744629,1630.351440 505.179871,1666.362305 
	C499.115601,1661.461182 493.618408,1656.845093 487.940948,1652.462646 
	C471.528656,1639.793701 454.425171,1628.269653 434.019836,1622.984497 
	C425.699188,1620.829468 417.251007,1618.919312 408.553192,1621.828491 
	C401.496704,1624.188599 395.925293,1628.019775 394.207733,1635.604004 
	C392.462219,1643.311523 395.551208,1649.634155 401.920471,1653.675781 
	C409.182281,1658.284180 416.806122,1662.465698 424.656067,1665.975098 
	C444.081329,1674.659302 463.889221,1682.515259 482.002716,1693.884644 
	C495.302246,1702.232178 507.608307,1711.619751 517.782043,1723.850586 
	C529.641418,1738.107910 536.607971,1754.470093 539.547058,1772.404175 
	C545.556824,1809.076050 539.875793,1843.840210 520.699890,1876.061523 
	C505.847168,1901.018555 485.088684,1919.818481 459.821198,1933.612671 
	C432.292145,1948.641357 402.740143,1956.261475 371.326874,1958.364624 
	C309.807678,1962.482910 254.598190,1944.800781 203.374008,1912.191650 
	C188.537170,1902.746704 174.347168,1892.393066 160.666199,1879.636353 
	C186.701065,1841.595703 212.555206,1803.819214 238.778152,1765.503784 
	C241.466629,1768.388550 243.685364,1770.769287 246.404800,1773.649292 
z"/>
<path fill="#3354FF" opacity="1.000000" stroke="none" 
	d="
M875.125610,1830.164551 
	C877.642883,1830.354736 879.257812,1830.543091 881.985352,1830.861084 
	C874.732300,1870.005127 867.563049,1908.696777 860.333984,1947.711426 
	C756.132446,1947.711426 652.604370,1947.711426 548.568970,1947.711426 
	C575.233032,1803.217896 601.798401,1659.259644 628.460815,1514.775146 
	C727.654724,1514.775146 826.479065,1514.775146 926.861633,1514.775146 
	C919.806641,1553.995483 912.850830,1592.664062 905.763000,1632.066772 
	C858.512146,1632.066772 811.961426,1632.066772 764.496277,1632.066772 
	C761.904358,1645.931763 759.441772,1659.104736 756.786926,1673.306152 
	C801.531372,1673.306152 844.770813,1673.306152 889.489441,1673.306152 
	C882.668518,1710.623657 876.033630,1746.923462 869.240723,1784.087646 
	C824.956177,1784.087646 781.100830,1784.087646 736.585510,1784.087646 
	C733.745178,1799.478882 731.054993,1814.056274 728.082642,1830.162842 
	C777.245789,1830.162842 825.734558,1830.162842 875.125610,1830.164551 
z"/>
<path fill="#3354FF" opacity="1.000000" stroke="none" 
	d="
M1710.041504,1569.989136 
	C1706.276489,1590.753662 1702.685791,1610.672729 1698.839966,1632.006470 
	C1683.511475,1632.347778 1667.983643,1632.122192 1652.467285,1632.162231 
	C1636.802856,1632.202759 1621.138062,1632.171265 1605.473511,1632.171265 
	C1589.831543,1632.171265 1574.189575,1632.171265 1557.602173,1632.171265 
	C1555.001099,1645.756714 1552.474487,1658.953247 1549.720947,1673.335205 
	C1594.179810,1673.335205 1637.657837,1673.335205 1682.457031,1673.335205 
	C1675.618042,1710.930908 1669.003418,1747.293335 1662.300049,1784.143433 
	C1617.771973,1784.143433 1574.173950,1784.143433 1529.707275,1784.143433 
	C1526.902588,1799.226807 1524.188843,1813.821411 1521.247314,1829.640503 
	C1531.777100,1830.666992 1541.622192,1830.024536 1551.415771,1830.136108 
	C1561.746460,1830.253906 1572.079468,1830.162598 1582.411499,1830.162598 
	C1592.410156,1830.162598 1602.408813,1830.162598 1612.407471,1830.162598 
	C1622.739502,1830.162598 1633.071411,1830.162598 1643.403442,1830.162598 
	C1653.360352,1830.162598 1663.317383,1830.162476 1674.761108,1830.162476 
	C1668.448486,1869.910889 1660.394775,1908.376099 1653.423096,1947.567993 
	C1549.560181,1947.567993 1446.068848,1947.567993 1341.646606,1947.567993 
	C1368.334473,1802.991699 1394.943359,1658.843872 1421.546509,1514.726318 
	C1521.346924,1514.726318 1620.210327,1514.726318 1719.912842,1514.726318 
	C1716.598999,1533.322510 1713.407349,1551.233154 1710.041504,1569.989136 
z"/>
<path fill="#0295FF" opacity="1.000000" stroke="none" 
	d="
M1124.767700,635.184875 
	C1123.106445,632.082153 1122.815552,628.627808 1121.172607,626.027649 
	C1103.793701,598.524353 1084.681274,572.373108 1060.925781,549.889587 
	C1042.085938,532.058472 1020.921204,518.477539 994.706421,512.563782 
	C1024.264526,511.859863 1054.242554,511.806671 1084.219360,511.597626 
	C1141.810669,511.195984 1199.402954,510.845581 1256.991089,510.162994 
	C1273.096924,509.972076 1288.220581,513.811951 1301.963379,521.377991 
	C1352.300903,549.091064 1380.260376,592.169434 1385.955200,649.147827 
	C1389.234497,681.960632 1382.334839,713.088684 1367.953979,742.955933 
	C1348.196655,783.989380 1329.567383,825.565979 1310.441406,866.903748 
	C1308.626953,870.825562 1306.837769,874.766663 1304.828735,878.589478 
	C1299.507080,888.715027 1290.700317,893.407532 1279.607422,893.543823 
	C1268.142334,893.684692 1258.758057,889.198547 1253.287109,878.694763 
	C1247.910400,868.372253 1243.007324,857.801941 1237.946533,847.316223 
	C1224.646606,819.758728 1212.111694,791.801514 1197.915894,764.714233 
	C1177.082275,724.960999 1155.111572,685.802612 1133.493042,646.463501 
	C1131.295410,642.464355 1128.192993,638.962463 1124.767700,635.184875 
z"/>
<path fill="#0295FF" opacity="1.000000" stroke="none" 
	d="
M1272.652832,1073.505493 
	C1276.204956,1079.695557 1278.771118,1085.839478 1282.410156,1091.263672 
	C1299.594360,1116.877930 1318.298096,1141.248901 1341.118774,1162.254028 
	C1360.551880,1180.141235 1382.547485,1192.748901 1409.553223,1197.312500 
	C1395.503784,1197.943237 1380.855225,1198.191040 1366.206055,1198.226807 
	C1336.222168,1198.299927 1306.236938,1198.096313 1276.254272,1198.303833 
	C1232.326172,1198.608032 1188.396484,1198.982056 1144.473877,1199.710205 
	C1123.403442,1200.059448 1104.472900,1193.721436 1087.058716,1182.618042 
	C1044.679199,1155.596680 1020.586914,1116.880127 1013.532227,1067.150635 
	C1008.808411,1033.852051 1014.432190,1002.298401 1028.262207,972.055603 
	C1042.779785,940.309265 1057.826416,908.805237 1072.553345,877.154297 
	C1087.096802,845.897827 1123.349121,840.939514 1146.304565,853.915588 
	C1156.468994,859.661438 1163.393921,868.356262 1168.423950,878.860352 
	C1195.867554,936.169983 1224.036133,993.112854 1256.062134,1048.045898 
	C1261.061279,1056.620605 1266.776855,1064.777588 1272.652832,1073.505493 
z"/>
<path fill="#0295FF" opacity="1.000000" stroke="none" 
	d="
M1129.929077,1744.695557 
	C1134.533447,1734.450073 1139.368774,1724.301270 1143.704590,1713.943359 
	C1171.175537,1648.317261 1198.535278,1582.644775 1225.941040,1516.991455 
	C1226.194946,1516.383545 1226.575928,1515.828613 1227.172852,1514.752197 
	C1284.132935,1514.752197 1341.365845,1514.752197 1400.141479,1514.752197 
	C1380.823486,1551.605713 1360.756714,1587.379272 1341.173462,1623.407227 
	C1321.477417,1659.642456 1301.731079,1695.850220 1282.004639,1732.068848 
	C1262.437622,1767.994385 1242.882568,1803.926392 1223.295166,1839.840820 
	C1203.568359,1876.011108 1183.808228,1912.163208 1164.135620,1948.189331 
	C1125.271484,1948.189331 1087.293457,1948.189331 1048.539307,1947.280884 
	C1049.176270,1941.664551 1050.589111,1936.956543 1052.519165,1931.784668 
	C1053.382690,1929.535767 1053.728882,1927.750732 1054.025269,1925.977661 
	C1053.975342,1925.989502 1054.011108,1926.086060 1054.540039,1925.766602 
	C1055.391357,1924.283081 1055.713867,1923.119141 1056.010620,1921.973267 
	C1055.984863,1921.991333 1055.978394,1922.053833 1056.556396,1921.658936 
	C1065.444092,1901.725220 1073.801636,1882.206665 1082.052124,1862.642944 
	C1093.272827,1836.036377 1104.554932,1809.454102 1115.522827,1782.743164 
	C1120.671997,1770.203125 1125.147949,1757.386719 1129.929077,1744.695557 
z"/>
<path fill="#3355FF" opacity="1.000000" stroke="none" 
	d="
M1052.001953,1932.248657 
	C1050.589111,1936.956543 1049.176270,1941.664551 1047.577026,1947.107544 
	C1039.115723,1947.842651 1030.840820,1947.842651 1021.823608,1947.842651 
	C997.377747,1803.415894 972.982178,1659.286621 948.494080,1514.609985 
	C1001.349854,1514.609985 1053.532471,1514.609985 1106.637817,1514.609985 
	C1107.647095,1522.611572 1108.790771,1530.390381 1109.586792,1538.204590 
	C1113.818604,1579.741211 1117.975708,1621.285522 1122.130005,1662.829956 
	C1123.184082,1673.370850 1124.133301,1683.921997 1124.673584,1695.748413 
	C1123.152466,1699.415649 1121.825195,1701.722534 1121.065796,1704.203125 
	C1114.959717,1724.151367 1109.042236,1744.157471 1102.912842,1764.098389 
	C1088.604980,1810.646606 1074.152588,1857.150513 1059.924438,1903.723022 
	C1058.104736,1909.679199 1057.269653,1915.936157 1055.978394,1922.053833 
	C1055.978394,1922.053833 1055.984863,1921.991333 1055.477051,1922.286743 
	C1054.649902,1923.750122 1054.330444,1924.918091 1054.010986,1926.086060 
	C1054.011108,1926.086060 1053.975342,1925.989502 1053.485107,1926.410156 
	C1052.663818,1928.636719 1052.332886,1930.442627 1052.001953,1932.248657 
z"/>
<path fill="#0A5ABB" opacity="1.000000" stroke="none" 
	d="
M1056.556396,1921.658936 
	C1057.269653,1915.936157 1058.104736,1909.679199 1059.924438,1903.723022 
	C1074.152588,1857.150513 1088.604980,1810.646606 1102.912842,1764.098389 
	C1109.042236,1744.157471 1114.959717,1724.151367 1121.065796,1704.203125 
	C1121.825195,1701.722534 1123.152466,1699.415649 1124.713257,1696.560059 
	C1126.252686,1709.809082 1127.262085,1723.528931 1128.376099,1737.240479 
	C1128.532593,1739.165649 1129.201538,1741.049194 1129.781128,1743.823730 
	C1125.147949,1757.386719 1120.671997,1770.203125 1115.522827,1782.743164 
	C1104.554932,1809.454102 1093.272827,1836.036377 1082.052124,1862.642944 
	C1073.801636,1882.206665 1065.444092,1901.725220 1056.556396,1921.658936 
z"/>
<path fill="#0A5ABB" opacity="1.000000" stroke="none" 
	d="
M1052.519165,1931.784668 
	C1052.332886,1930.442627 1052.663818,1928.636719 1053.534912,1926.398193 
	C1053.728882,1927.750732 1053.382690,1929.535767 1052.519165,1931.784668 
z"/>
<path fill="#0A5ABB" opacity="1.000000" stroke="none" 
	d="
M1054.539917,1925.766602 
	C1054.330444,1924.918091 1054.649902,1923.750122 1055.502808,1922.268677 
	C1055.713867,1923.119141 1055.391357,1924.283081 1054.539917,1925.766602 
z"/>
</svg>